<svg xmlns="http://www.w3.org/2000/svg" version="1.1" xmlns:xlink="http://www.w3.org/1999/xlink" xmlns:svgjs="http://svgjs.dev/svgjs" width="1500" height="522" viewBox="0 0 1500 522"><g transform="matrix(1,0,0,1,-0.9090909090911055,-0.7543204796554619)"><svg viewBox="0 0 396 138" data-background-color="#ffffff" preserveAspectRatio="xMidYMid meet" height="522" width="1500" xmlns="http://www.w3.org/2000/svg" xmlns:xlink="http://www.w3.org/1999/xlink"><g id="tight-bounds" transform="matrix(1,0,0,1,0.24000000000003752,0.19941805783994937)"><svg viewBox="0 0 395.5199999999999 137.60116388432007" height="137.60116388432007" width="395.5199999999999"><g><svg viewBox="0 0 397.4975999999999 138.28916970374166" height="137.60116388432007" width="395.5199999999999"><g><rect width="397.4975999999999" height="2.50486164537054" x="0" y="77.72840138173734" fill="#8eaec4" opacity="1" stroke-width="0" stroke="transparent" fill-opacity="1" class="rect-yte-0" data-fill-palette-color="secondary" rx="1%" id="yte-0" data-palette-color="#8eaec4"></rect></g><g transform="matrix(1,0,0,1,0.9887999999999693,86.79049246525065)"><svg viewBox="0 0 395.52 51.498677238491005" height="51.498677238491005" width="395.52"><g id="textblocktransform"><svg viewBox="0 0 395.52 51.498677238491005" height="51.498677238491005" width="395.52" id="textblock"><g><svg viewBox="0 0 395.52 27.77592571096924" height="27.77592571096924" width="395.52"><g transform="matrix(1,0,0,1,0,0)"><svg width="395.52" viewBox="1.95 -29.3 420.62 29.54" height="27.77592571096924" data-palette-color="#336a86"><path d="M10.06-28.03L15.38-28.03Q19.73-28.03 21-24.12L21-24.12Q21.39-22.85 21.39-21.39L21.39-21.39Q21.39-15.04 15.72-14.4L15.72-14.4Q15.14-14.36 14.55-14.36L14.55-14.36 10.06-14.36 10.06-28.03ZM1.95 0L14.94 0Q14.94-1.07 14.16-1.22L14.16-1.22Q13.92-1.27 13.67-1.27L13.67-1.27 10.06-1.27 10.06-12.94 14.36-12.94Q22.36-12.94 24.95-17.48L24.95-17.48Q25.98-19.19 25.98-21.44L25.98-21.44Q25.98-26.27 21.78-28.22L21.78-28.22Q19.53-29.3 16.41-29.3L16.41-29.3 1.95-29.3 1.95-28.03 5.86-28.03 5.86-1.27 1.95-1.27 1.95 0ZM46.82 0L57.37 0Q57.37-1.07 56.59-1.22L56.59-1.22Q56.35-1.27 56.1-1.27L56.1-1.27 54.44-1.27 43.26-29.3 41.45-29.3 30.52-1.27 27.44-1.27 27.44 0 36.13 0Q36.13-1.07 35.35-1.22L35.35-1.22Q35.1-1.27 34.86-1.27L34.86-1.27 32.47-1.27 36.13-10.74 46.34-10.74 50-1.27 46.82-1.27 46.82 0ZM41.21-23.97L45.8-12.16 36.67-12.16 41.21-23.97ZM59.32 0L71.28 0 71.28-1.27 67.43-1.27 67.43-13.43 72.07-13.43 79.88 0 87.25 0Q87.25-1.07 86.66-1.22L86.66-1.22Q86.42-1.27 86.08-1.27L86.08-1.27 84.22-1.27 76.36-13.87Q81-14.99 82.71-18.7L82.71-18.7Q83.34-20.17 83.34-21.68L83.34-21.68Q83.34-25.34 80.17-27.54L80.17-27.54Q77.58-29.3 73.77-29.3L73.77-29.3 59.32-29.3 59.32-28.03 63.23-28.03 63.23-1.27 59.32-1.27 59.32 0ZM67.43-28.03L72.31-28.03Q76.51-28.03 78.12-24.61L78.12-24.61Q78.75-23.19 78.75-21.63L78.75-21.63Q78.75-18.12 76.31-16.16L76.31-16.16Q74.65-14.84 72.46-14.84L72.46-14.84 67.43-14.84 67.43-28.03ZM89.2 0L101.16 0Q101.16-1.07 100.38-1.22L100.38-1.22Q100.14-1.27 99.89-1.27L99.89-1.27 97.31-1.27 97.31-28.03 101.16-28.03 101.16-29.3 89.2-29.3 89.2-28.03 93.11-28.03 93.11-1.27 89.2-1.27 89.2 0ZM118.2 0.24L118.79 0.24 128.85-28.03 131.29-28.03 131.29-29.3 123.09-29.3 123.09-28.03 126.99-28.03 118.84-4.98 110-28.03 113.91-28.03 113.91-29.3 102.87-29.3 102.87-28.03 105.8-28.03 115.08-3.37Q116.15-0.49 116.93-0.05L116.93-0.05Q117.42 0.24 118.2 0.24L118.2 0.24ZM150.67 0L161.22 0Q161.22-1.07 160.44-1.22L160.44-1.22Q160.19-1.27 159.95-1.27L159.95-1.27 158.29-1.27 147.11-29.3 145.3-29.3 134.36-1.27 131.29-1.27 131.29 0 139.98 0Q139.98-1.07 139.2-1.22L139.2-1.22Q138.95-1.27 138.71-1.27L138.71-1.27 136.32-1.27 139.98-10.74 150.18-10.74 153.84-1.27 150.67-1.27 150.67 0ZM145.06-23.97L149.65-12.16 140.51-12.16 145.06-23.97ZM180.6 0L191.15 0Q191.15-1.07 190.37-1.22L190.37-1.22Q190.12-1.27 189.88-1.27L189.88-1.27 188.22-1.27 177.04-29.3 175.23-29.3 164.29-1.27 161.22-1.27 161.22 0 169.91 0Q169.91-1.07 169.13-1.22L169.13-1.22Q168.88-1.27 168.64-1.27L168.64-1.27 166.24-1.27 169.91-10.74 180.11-10.74 183.77-1.27 180.6-1.27 180.6 0ZM174.99-23.97L179.57-12.16 170.44-12.16 174.99-23.97ZM193.1 0L205.06 0 205.06-1.27 201.2-1.27 201.2-13.43 205.84-13.43 213.65 0 221.03 0Q221.03-1.07 220.44-1.22L220.44-1.22Q220.2-1.27 219.86-1.27L219.86-1.27 218-1.27 210.14-13.87Q214.78-14.99 216.49-18.7L216.49-18.7Q217.12-20.17 217.12-21.68L217.12-21.68Q217.12-25.34 213.95-27.54L213.95-27.54Q211.36-29.3 207.55-29.3L207.55-29.3 193.1-29.3 193.1-28.03 197-28.03 197-1.27 193.1-1.27 193.1 0ZM201.2-28.03L206.09-28.03Q210.29-28.03 211.9-24.61L211.9-24.61Q212.53-23.19 212.53-21.63L212.53-21.63Q212.53-18.12 210.09-16.16L210.09-16.16Q208.43-14.84 206.23-14.84L206.23-14.84 201.2-14.84 201.2-28.03ZM240.6-28.03L245.92-28.03Q250.27-28.03 251.54-24.12L251.54-24.12Q251.93-22.85 251.93-21.39L251.93-21.39Q251.93-15.04 246.27-14.4L246.27-14.4Q245.68-14.36 245.09-14.36L245.09-14.36 240.6-14.36 240.6-28.03ZM232.5 0L245.49 0Q245.49-1.07 244.7-1.22L244.7-1.22Q244.46-1.27 244.22-1.27L244.22-1.27 240.6-1.27 240.6-12.94 244.9-12.94Q252.91-12.94 255.5-17.48L255.5-17.48Q256.52-19.19 256.52-21.44L256.52-21.44Q256.52-26.27 252.32-28.22L252.32-28.22Q250.08-29.3 246.95-29.3L246.95-29.3 232.5-29.3 232.5-28.03 236.4-28.03 236.4-1.27 232.5-1.27 232.5 0ZM277.37 0L287.91 0Q287.91-1.07 287.13-1.22L287.13-1.22Q286.89-1.27 286.64-1.27L286.64-1.27 284.98-1.27 273.8-29.3 272-29.3 261.06-1.27 257.98-1.27 257.98 0 266.67 0Q266.67-1.07 265.89-1.22L265.89-1.22Q265.65-1.27 265.4-1.27L265.4-1.27 263.01-1.27 266.67-10.74 276.88-10.74 280.54-1.27 277.37-1.27 277.37 0ZM271.75-23.97L276.34-12.16 267.21-12.16 271.75-23.97ZM295.09 0L308.52 0Q308.52-1.07 307.74-1.22L307.74-1.22Q307.49-1.27 307.25-1.27L307.25-1.27 303.93-1.27 303.93-28.03 306.76-28.03Q310.71-28.03 312.03-23.24L312.03-23.24Q312.03-23.05 312.08-22.95L312.08-22.95 312.86-19.68 314.23-19.68 313.99-29.3 289.87-29.3 289.62-19.68 290.99-19.68 291.77-22.95Q293.33-27.73 297.09-28.03L297.09-28.03 299.73-28.03 299.73-1.27 295.09-1.27 295.09 0ZM317.89 0L329.85 0 329.85-1.27 326-1.27 326-13.43 330.63-13.43 338.45 0 345.82 0Q345.82-1.07 345.23-1.22L345.23-1.22Q344.99-1.27 344.65-1.27L344.65-1.27 342.79-1.27 334.93-13.87Q339.57-14.99 341.28-18.7L341.28-18.7Q341.91-20.17 341.91-21.68L341.91-21.68Q341.91-25.34 338.74-27.54L338.74-27.54Q336.15-29.3 332.34-29.3L332.34-29.3 317.89-29.3 317.89-28.03 321.8-28.03 321.8-1.27 317.89-1.27 317.89 0ZM326-28.03L330.88-28.03Q335.08-28.03 336.69-24.61L336.69-24.61Q337.32-23.19 337.32-21.63L337.32-21.63Q337.32-18.12 334.88-16.16L334.88-16.16Q333.22-14.84 331.02-14.84L331.02-14.84 326-14.84 326-28.03ZM347.77 0L359.73 0Q359.73-1.07 358.95-1.22L358.95-1.22Q358.71-1.27 358.46-1.27L358.46-1.27 355.88-1.27 355.88-28.03 359.73-28.03 359.73-29.3 347.77-29.3 347.77-28.03 351.68-28.03 351.68-1.27 347.77-1.27 347.77 0ZM363.64 0L375.6 0Q375.6-1.07 374.82-1.22L374.82-1.22Q374.57-1.27 374.33-1.27L374.33-1.27 371.74-1.27 371.74-12.65 374.28-15.04 385.85 0 392.64 0Q392.64-1.07 391.86-1.22L391.86-1.22Q391.62-1.27 391.37-1.27L391.37-1.27 390.05-1.27 377.31-17.87 386-25.98Q387.81-27.69 388.73-27.93L388.73-27.93Q389.17-28.03 389.66-28.03L389.66-28.03Q390.74-28.03 390.88-28.81L390.88-28.81Q390.93-29.05 390.93-29.3L390.93-29.3 382.14-29.3 382.14-28.03 386.05-28.03 371.74-14.84 371.74-28.03 375.6-28.03 375.6-29.3 363.64-29.3 363.64-28.03 367.54-28.03 367.54-1.27 363.64-1.27 363.64 0ZM412.02 0L422.57 0Q422.57-1.07 421.79-1.22L421.79-1.22Q421.54-1.27 421.3-1.27L421.3-1.27 419.64-1.27 408.46-29.3 406.65-29.3 395.71-1.27 392.64-1.27 392.64 0 401.33 0Q401.33-1.07 400.55-1.22L400.55-1.22Q400.3-1.27 400.06-1.27L400.06-1.27 397.67-1.27 401.33-10.74 411.53-10.74 415.2-1.27 412.02-1.27 412.02 0ZM406.41-23.97L411-12.16 401.87-12.16 406.41-23.97Z" opacity="1" transform="matrix(1,0,0,1,0,0)" fill="#336a86" class="wordmark-text-0" data-fill-palette-color="primary" id="text-0"></path></svg></g></svg></g><g transform="matrix(1,0,0,1,0,34.33315514911202)"><svg viewBox="0 0 395.52 17.16552208937899" height="17.16552208937899" width="395.52"><g transform="matrix(1,0,0,1,0,0)"><svg width="395.52" viewBox="0.98 -31.98 950.68 41.26" height="17.16552208937899" data-palette-color="#8eaec4"><path d="M22.17-29.3L22.17-28.03 26.32-28.03 26.32-6.15 7.76-29.3 0.98-29.3 0.98-28.03 4.88-28.03 4.88-1.27 0.98-1.27 0.98 0 10.99 0Q10.99-1.07 10.21-1.22L10.21-1.22Q9.96-1.27 9.72-1.27L9.72-1.27 6.84-1.27 6.84-23.88 26.03 0.24 28.27-0.24 28.27-28.03 32.18-28.03 32.18-29.3 22.17-29.3ZM85.62-20.02L85.62-20.02Q89.03-20.02 90.16-17.14L90.16-17.14Q90.55-16.21 90.55-15.14L90.55-15.14Q90.55-12.7 88.2-12.16L88.2-12.16Q86.98-11.91 84.74-11.96L84.74-11.96 79.56-12.11Q79.81-17.72 83.22-19.43L83.22-19.43Q84.35-20.02 85.62-20.02ZM94.11-4.69L94.11-4.69 92.89-5.13Q91.18-1.42 87.37-0.93L87.37-0.93Q86.89-0.88 86.45-0.88L86.45-0.88Q81.32-0.88 80-6.98L80-6.98Q79.61-8.69 79.56-10.74L79.56-10.74 85.42-10.64Q91.38-10.55 93.09-11.77L93.09-11.77Q94.4-12.74 94.4-14.55L94.4-14.55Q94.4-17.87 91.04-19.82L91.04-19.82Q88.64-21.24 85.52-21.24L85.52-21.24Q79.41-21.24 76.78-16.16L76.78-16.16Q75.41-13.53 75.41-10.21L75.41-10.21Q75.41-4.15 79.76-1.22L79.76-1.22Q82.34 0.49 85.66 0.49L85.66 0.49Q90.94 0.49 93.43-3.32L93.43-3.32Q93.82-4 94.11-4.69ZM143.2-19.53L146.87-19.53 146.87-20.75 137.2-20.75 137.2-19.53 139.4-19.53 145.5-3.17Q146.52-0.39 147.6 0.05L147.6 0.05Q148.14 0.24 148.92 0.24L148.92 0.24 149.89 0.24 154.14-12.55 157.41-3.17Q158.34-0.44 159.32 0.05L159.32 0.05Q159.81 0.24 160.64 0.24L160.64 0.24 161.42 0.24 167.32-17.77Q167.81-19.29 168.5-19.48L168.5-19.48Q168.74-19.53 169.03-19.53L169.03-19.53Q170.11-19.53 170.25-20.21L170.25-20.21Q170.3-20.46 170.3-20.75L170.3-20.75 163.08-20.75 163.08-19.53 166.49-19.53 161.07-2.69 155.36-19.53 158.78-19.53 158.78-20.75 151.26-20.75 153.46-14.55 149.4-2.54 143.2-19.53ZM220.37-0.83L220.37-0.83Q223.74-0.83 224.91-2.88L224.91-2.88Q225.35-3.61 225.35-4.49L225.35-4.49Q225.35-6.54 222.37-8.01L222.37-8.01Q221.74-8.35 220.27-8.98L220.27-8.98Q216.27-10.64 214.95-12.11L214.95-12.11Q213.54-13.72 213.54-15.87L213.54-15.87Q213.54-19.24 217.25-20.61L217.25-20.61Q218.96-21.24 220.96-21.24L220.96-21.24Q224.18-21.24 226.52-19.87L226.52-19.87Q226.52-21.29 227.21-21.48L227.21-21.48Q227.5-21.53 227.84-21.53L227.84-21.53 227.84-15.43 226.57-15.43Q226.48-19.92 221.59-19.97L221.59-19.97Q217.93-19.97 217.05-17.82L217.05-17.82Q216.81-17.24 216.81-16.6L216.81-16.6Q216.81-14.5 219.83-13.04L219.83-13.04Q220.52-12.7 221.98-12.11L221.98-12.11Q225.94-10.5 227.26-9.03L227.26-9.03Q228.67-7.47 228.67-5.32L228.67-5.32Q228.67-1.37 224.47-0.05L224.47-0.05Q222.86 0.49 220.96 0.49L220.96 0.49Q217.44 0.44 214.85-1.27L214.85-1.27Q214.85 0 214.22 0.2L214.22 0.2Q213.93 0.24 213.54 0.24L213.54 0.24 213.54-7.18 214.9-7.18Q215-0.88 220.37-0.83ZM333.99-1.22L333.99-1.22 330.57-1.22 330.57-19.53 336.18-19.53 336.18-20.75 330.57-20.75 330.57-21.04Q330.57-29.39 333.06-30.52L333.06-30.52Q333.6-30.76 334.23-30.76L334.23-30.76Q335.74-30.76 336.77-28.96L336.77-28.96Q337.65-27.39 338.04-27.1L338.04-27.1Q338.43-26.81 338.92-26.81L338.92-26.81Q340.53-26.81 340.82-28.17L340.82-28.17Q340.87-28.42 340.87-28.61L340.87-28.61Q340.87-30.42 338.43-31.45L338.43-31.45Q337.01-31.98 335.26-31.98L335.26-31.98Q330.67-31.98 328.42-28.17L328.42-28.17Q326.91-25.54 326.91-21.53L326.91-21.53 326.91-20.75 323.49-20.75 323.49-19.53 326.91-19.53 326.91-4.15Q326.91-1.9 325.64-1.46L325.64-1.46Q324.9-1.22 323.24-1.22L323.24-1.22 323.24 0 335.21 0Q335.21-1.07 334.47-1.17L334.47-1.17Q334.28-1.22 333.99-1.22ZM383.47-10.4L383.47-10.4Q383.47-17.97 387.62-19.63L387.62-19.63Q388.69-20.02 389.87-20.02L389.87-20.02Q395.29-20.02 396.16-13.18L396.16-13.18Q396.31-12.01 396.31-10.6L396.31-10.6Q396.31-2.39 391.82-0.98L391.82-0.98Q390.94-0.73 390.01-0.73L390.01-0.73Q385.08-0.73 383.81-6.59L383.81-6.59Q383.47-8.3 383.47-10.4ZM390.01-21.24L390.01-21.24Q385.32-21.24 382.2-18.02L382.2-18.02Q379.32-15.04 379.32-10.6L379.32-10.6Q379.32-4.44 383.81-1.37L383.81-1.37Q386.54 0.49 389.87 0.49L389.87 0.49Q394.55 0.49 397.63-2.83L397.63-2.83Q400.46-5.86 400.46-10.4L400.46-10.4Q400.46-16.55 395.92-19.53L395.92-19.53Q393.23-21.24 390.01-21.24ZM455.61-1.22L455.61-1.22 452.09-1.22 452.09-10.94Q452.09-15.38 454.83-18.07L454.83-18.07Q455.9-19.09 456.63-19.14L456.63-19.14Q457.46-19.14 458.15-17.92L458.15-17.92Q458.93-16.55 459.61-16.36L459.61-16.36Q459.9-16.26 460.2-16.26L460.2-16.26Q461.66-16.26 462.05-17.68L462.05-17.68Q462.15-17.97 462.15-18.26L462.15-18.26Q462.15-20.46 459.9-20.95L459.9-20.95Q459.42-21.04 458.98-21.04L458.98-21.04Q456.05-21.04 453.75-18.55L453.75-18.55Q452.68-17.38 452.04-15.92L452.04-15.92 451.85-20.75 444.77-20.75 444.77-19.53 448.43-19.53 448.43-4.15Q448.43-1.9 447.16-1.46L447.16-1.46Q446.43-1.22 444.77-1.22L444.77-1.22 444.77 0 456.83 0Q456.83-1.07 456.1-1.17L456.1-1.17Q455.9-1.22 455.61-1.22ZM565.51 8.06L562.09 8.06 562.09-2.05Q564.78 0.29 568.29 0.49L568.29 0.49Q572.64 0.49 575.57-2.78L575.57-2.78Q578.4-5.96 578.4-10.84L578.4-10.84Q578.4-16.41 575.33-19.29L575.33-19.29Q573.18-21.24 570.1-21.24L570.1-21.24Q565.36-21.24 563.02-17.48L563.02-17.48Q562.43-16.5 562.04-15.43L562.04-15.43 561.8-20.75 554.77-20.75 554.77-19.53 558.43-19.53 558.43 5.13Q558.43 7.37 557.16 7.81L557.16 7.81Q556.43 8.06 554.77 8.06L554.77 8.06 554.77 9.28 566.73 9.28Q566.73 8.2 566 8.11L566 8.11Q565.8 8.06 565.51 8.06L565.51 8.06ZM568.54-19.29L568.54-19.29Q572.79-19.29 573.91-13.96L573.91-13.96Q574.25-12.35 574.25-10.35L574.25-10.35Q574.25-3.17 570.39-1.27L570.39-1.27Q569.27-0.73 567.95-0.73L567.95-0.73Q564.19-0.73 562.78-4.69L562.78-4.69Q562.04-6.69 562.04-9.42L562.04-9.42Q562.04-15.77 565.32-18.21L565.32-18.21Q566.78-19.29 568.54-19.29ZM640.24 0.49L640.24 0.49Q644 0.49 644.39-4.05L644.39-4.05Q644.44-4.35 644.44-4.59L644.44-4.59 643.17-4.64Q642.83-1.07 641.26-1.03L641.26-1.03Q639.99-1.12 639.94-3.56L639.94-3.56 639.94-13.87Q639.94-20.85 632.96-21.24L632.96-21.24Q632.52-21.24 632.08-21.24L632.08-21.24Q626.61-21.24 624.76-18.7L624.76-18.7Q624.17-17.87 624.17-17.04L624.17-17.04Q624.17-15.53 625.59-15.28L625.59-15.28Q625.83-15.23 626.08-15.23L626.08-15.23Q627.2-15.23 627.74-16.65L627.74-16.65Q628.42-18.46 628.67-18.8L628.67-18.8Q629.59-20.02 631.55-20.02L631.55-20.02Q636.14-19.73 636.28-14.99L636.28-14.99 636.28-11.91Q624.81-11.91 623.15-7.13L623.15-7.13Q622.85-6.2 622.85-5.13L622.85-5.13Q622.85-1.42 626.13-0.05L626.13-0.05Q627.44 0.49 628.91 0.49L628.91 0.49Q632.47 0.49 634.92-1.95L634.92-1.95Q635.79-2.88 636.23-3.91L636.23-3.91Q636.82 0.44 640.24 0.49ZM630.52-1.46L630.52-1.46Q627.54-1.46 626.86-4.44L626.86-4.44Q626.71-5.13 626.71-5.96L626.71-5.96Q626.71-9.23 630.47-10.11L630.47-10.11Q632.47-10.55 636.28-10.6L636.28-10.6 636.28-6.69Q635.55-3.32 632.72-1.95L632.72-1.95Q631.59-1.46 630.52-1.46ZM697.87-1.22L697.87-1.22 694.36-1.22 694.36-10.94Q694.36-15.38 697.09-18.07L697.09-18.07Q698.17-19.09 698.9-19.14L698.9-19.14Q699.73-19.14 700.41-17.92L700.41-17.92Q701.19-16.55 701.88-16.36L701.88-16.36Q702.17-16.26 702.46-16.26L702.46-16.26Q703.93-16.26 704.32-17.68L704.32-17.68Q704.42-17.97 704.42-18.26L704.42-18.26Q704.42-20.46 702.17-20.95L702.17-20.95Q701.68-21.04 701.24-21.04L701.24-21.04Q698.31-21.04 696.02-18.55L696.02-18.55Q694.94-17.38 694.31-15.92L694.31-15.92 694.11-20.75 687.03-20.75 687.03-19.53 690.7-19.53 690.7-4.15Q690.7-1.9 689.43-1.46L689.43-1.46Q688.69-1.22 687.03-1.22L687.03-1.22 687.03 0 699.1 0Q699.1-1.07 698.36-1.17L698.36-1.17Q698.17-1.22 697.87-1.22ZM757.61-20.02L757.61-20.02Q761.03-20.02 762.15-17.14L762.15-17.14Q762.54-16.21 762.54-15.14L762.54-15.14Q762.54-12.7 760.2-12.16L760.2-12.16Q758.98-11.91 756.73-11.96L756.73-11.96 751.56-12.11Q751.8-17.72 755.22-19.43L755.22-19.43Q756.34-20.02 757.61-20.02ZM766.11-4.69L766.11-4.69 764.89-5.13Q763.18-1.42 759.37-0.93L759.37-0.93Q758.88-0.88 758.44-0.88L758.44-0.88Q753.31-0.88 752-6.98L752-6.98Q751.61-8.69 751.56-10.74L751.56-10.74 757.42-10.64Q763.37-10.55 765.08-11.77L765.08-11.77Q766.4-12.74 766.4-14.55L766.4-14.55Q766.4-17.87 763.03-19.82L763.03-19.82Q760.64-21.24 757.51-21.24L757.51-21.24Q751.41-21.24 748.77-16.16L748.77-16.16Q747.41-13.53 747.41-10.21L747.41-10.21Q747.41-4.15 751.75-1.22L751.75-1.22Q754.34 0.49 757.66 0.49L757.66 0.49Q762.93 0.49 765.42-3.32L765.42-3.32Q765.81-4 766.11-4.69ZM819.89-1.22L819.89-1.22 817.69-1.22 817.69-11.77Q817.84-16.31 820.91-18.31L820.91-18.31Q822.23-19.14 823.6-19.14L823.6-19.14Q826.58-19.14 827.65-16.36L827.65-16.36Q828.09-15.23 828.09-13.82L828.09-13.82 828.09-4.15Q828.09-1.9 826.82-1.46L826.82-1.46Q826.09-1.22 824.43-1.22L824.43-1.22 824.43 0 835.41 0Q835.41-1.07 834.68-1.17L834.68-1.17Q834.49-1.22 834.19-1.22L834.19-1.22 831.75-1.22 831.75-13.33Q831.75-18.21 828.38-20.31L828.38-20.31Q826.82-21.24 825.01-21.24L825.01-21.24Q821.4-21.24 819.06-18.36L819.06-18.36Q818.18-17.24 817.64-15.87L817.64-15.87 817.45-20.75 810.37-20.75 810.37-19.53 814.03-19.53 814.03-4.15Q814.03-1.9 812.76-1.46L812.76-1.46Q812.03-1.22 810.37-1.22L810.37-1.22 810.37 0 821.11 0Q821.11-1.07 820.38-1.17L820.38-1.17Q820.18-1.22 819.89-1.22ZM878.4-20.75L878.4-19.53 881.82-19.53 881.82-5.76Q882.16 0.34 887.44 0.54L887.44 0.54Q891.93 0.54 893.05-4.98L893.05-4.98Q893.05-5.03 893.05-5.08L893.05-5.08 891.73-5.32Q890.51-1.27 888.17-0.93L888.17-0.93Q885.53-1.03 885.48-4.69L885.48-4.69 885.48-19.53 893.05-19.53 893.05-20.75 885.48-20.75 885.48-26.42 881.82-25.39 881.82-20.75 878.4-20.75ZM943.36-0.83L943.36-0.83Q946.73-0.83 947.91-2.88L947.91-2.88Q948.34-3.61 948.34-4.49L948.34-4.49Q948.34-6.54 945.37-8.01L945.37-8.01Q944.73-8.35 943.27-8.98L943.27-8.98Q939.26-10.64 937.94-12.11L937.94-12.11Q936.53-13.72 936.53-15.87L936.53-15.87Q936.53-19.24 940.24-20.61L940.24-20.61Q941.95-21.24 943.95-21.24L943.95-21.24Q947.17-21.24 949.52-19.87L949.52-19.87Q949.52-21.29 950.2-21.48L950.2-21.48Q950.49-21.53 950.83-21.53L950.83-21.53 950.83-15.43 949.57-15.43Q949.47-19.92 944.58-19.97L944.58-19.97Q940.92-19.97 940.04-17.82L940.04-17.82Q939.8-17.24 939.8-16.6L939.8-16.6Q939.8-14.5 942.83-13.04L942.83-13.04Q943.51-12.7 944.98-12.11L944.98-12.11Q948.93-10.5 950.25-9.03L950.25-9.03Q951.66-7.47 951.66-5.32L951.66-5.32Q951.66-1.37 947.47-0.05L947.47-0.05Q945.85 0.49 943.95 0.49L943.95 0.49Q940.43 0.44 937.85-1.27L937.85-1.27Q937.85 0 937.21 0.2L937.21 0.2Q936.92 0.24 936.53 0.24L936.53 0.24 936.53-7.18 937.9-7.18Q937.99-0.88 943.36-0.83Z" opacity="1" transform="matrix(1,0,0,1,0,0)" fill="#8eaec4" class="slogan-text-1" data-fill-palette-color="secondary" id="text-1"></path></svg></g></svg></g></svg></g></svg></g><g transform="matrix(1,0,0,1,155.16321402820267,0)"><svg viewBox="0 0 87.17117194359457 71.17117194359457" height="71.17117194359457" width="87.17117194359457"><g><svg xmlns="http://www.w3.org/2000/svg" xmlns:xlink="http://www.w3.org/1999/xlink" version="1.1" x="8" y="0" viewBox="0 0 100 100" enable-background="new 0 0 100 100" xml:space="preserve" height="71.17117194359457" width="71.17117194359457" class="icon-icon-0" data-fill-palette-color="accent" id="icon-0"><g fill="#283132" data-fill-palette-color="accent"></g><g fill="#283132" data-fill-palette-color="accent"><g fill="#283132" data-fill-palette-color="accent"><path d="M57.925 69.266A16 16 0 0 1 60.617 67.997C62.036 67.628 63.303 66.86 64.146 65.641 65.111 64.257 65.5 62.483 65.501 60.337V56.901L65.486 56.902A0.45 0.45 0 0 0 65.049 56.526H63.007A0.46 0.46 0 0 0 62.547 56.979V60.337C62.548 62.138 62.203 63.275 61.727 63.943A2.75 2.75 0 0 1 60.875 64.731V56.979A0.454 0.454 0 0 0 60.422 56.526H58.38C58.352 56.526 58.327 56.537 58.3 56.542H54.276S54.272 56.543 54.218 56.537C54.028 56.523 53.527 56.421 53.163 56.105 52.81 55.784 52.389 55.273 52.368 53.754L52.362 53.084C52.368 53.054 52.38 53.026 52.38 52.995V40.904L52.284 40.921C51.998 38.767 50.993 37.662 49.721 37.097 48.507 36.453 47.628 35.747 47.007 34.842 46.387 33.94 46.002 32.797 45.788 31.234 46.912 29.488 47.42 27.228 47.417 24.521V24.217C47.42 20.798 46.621 18.075 44.768 16.222 42.909 14.375 40.255 13.654 37.123 13.657H36.915C33.784 13.654 31.128 14.375 29.271 16.222 27.418 18.074 26.618 20.798 26.622 24.217V24.521C26.619 27.948 27.417 30.672 29.272 32.523 31.131 34.368 33.787 35.083 36.916 35.079H37.152C39.611 35.079 41.768 34.623 43.483 33.531 43.755 34.64 44.119 35.613 44.664 36.464H40.857A0.46 0.46 0 0 0 40.399 36.922V39.426C39.619 38.736 38.871 38.061 38.413 37.542 38.207 37.307 38.049 37.16 37.84 37.16H36.62C36.411 37.16 36.254 37.307 36.047 37.542 35.588 38.062 34.839 38.738 34.057 39.43V38.674C34.058 38.663 34.063 38.654 34.063 38.643V36.923A0.46 0.46 0 0 0 33.605 36.465H29.141L29.144 36.471C28.929 36.476 28.719 36.481 28.53 36.489 25.644 36.535 22.093 36.856 22.093 42.239V57.598A0.46 0.46 0 0 0 22.552 58.056H24.614A0.46 0.46 0 0 0 25.071 57.598V42.765C25.071 40.039 25.621 39.146 28.508 39.146 28.735 39.146 29.581 39.112 30.185 39.1H31.42V41.984C31.42 41.994 31.425 42.003 31.426 42.013 31.427 42.032 31.434 42.051 31.438 42.071A0.45 0.45 0 0 0 31.61 42.345L32.776 43.504C32.938 43.669 33.163 43.613 33.315 43.467 34.127 42.69 36.579 40.748 37.231 39.865 37.882 40.749 40.334 42.691 41.147 43.467 41.298 43.613 41.524 43.669 41.686 43.504L42.862 42.335A0.45 0.45 0 0 0 43.001 42.158 0.35 0.35 0 0 0 43.033 42.001C43.033 41.995 43.036 41.99 43.036 41.984V39.1H44.277C44.883 39.112 45.727 39.146 45.955 39.146 48.842 39.146 49.392 40.039 49.392 42.765V50.224C49.392 50.244 49.401 50.261 49.403 50.281V53.77C49.366 56.213 50.499 57.908 51.727 58.673A4.86 4.86 0 0 0 54.212 59.463L54.277 59.466V59.465L54.285 59.466H57.925zM31.312 18.269C32.41 17.169 34.179 16.551 36.916 16.548H37.124A14 14 0 0 1 39.173 16.694C38.849 17.468 38.397 18.03 37.77 18.479 36.817 19.154 35.277 19.602 32.929 19.6H30.379A5 5 0 0 1 31.312 18.269M44.528 24.521C44.525 27.549 43.832 29.383 42.73 30.474 41.632 31.572 39.863 32.187 37.124 32.19H36.916C34.177 32.187 32.407 31.572 31.31 30.474 30.208 29.382 29.516 27.549 29.511 24.521V24.217C29.512 23.612 29.548 23.068 29.601 22.555H32.928C35.622 22.554 37.797 22.062 39.467 20.897 40.631 20.09 41.447 18.963 41.964 17.664A4.7 4.7 0 0 1 42.728 18.269C43.833 19.365 44.524 21.199 44.527 24.217zM37.005 30.261C39.868 30.261 40.931 29.166 41.257 25.167H32.81C33.172 29.166 34.299 30.261 37.005 30.261M32.886 74.621H30.825A0.46 0.46 0 0 0 30.367 75.079V87.472C30.367 87.724 30.572 87.93 30.825 87.93H32.886A0.46 0.46 0 0 0 33.345 87.472V75.079A0.46 0.46 0 0 0 32.886 74.621M82.132 45.29V44.611A0.46 0.46 0 0 0 81.672 44.158H79.63C79.38 44.158 79.244 44.362 79.244 44.611V45.29C79.246 48.449 78.899 50.393 78.408 51.663 77.91 52.931 77.312 53.598 76.44 54.4 74.036 56.618 73.483 59.563 73.362 61.412A0.5 0.5 0 0 0 73.329 61.577V62.282C73.329 62.849 73.324 63.206 73.329 63.25V64.717A2.8 2.8 0 0 1 72.5 63.944C72.024 63.276 71.678 62.139 71.68 60.337V56.902H71.664A0.45 0.45 0 0 0 71.227 56.527H69.185A0.455 0.455 0 0 0 68.741 56.902H68.725V60.337C68.726 62.485 69.116 64.256 70.081 65.642 70.866 66.779 72.025 67.517 73.329 67.912V70.024C71.094 69.126 68.814 68.827 67.085 68.827L67.044 68.828H66.754L66.751 68.827V68.828L66.71 68.827C63.854 68.827 59.49 69.634 56.313 72.633 56.139 72.797 56.103 73.088 56.291 73.351L57.542 74.711C57.631 74.779 57.732 74.794 57.829 74.783V87.479C57.829 87.728 58.032 87.933 58.28 87.933H60.323C60.573 87.933 60.776 87.728 60.776 87.479V72.822C63.193 71.731 65.74 71.613 66.709 71.613H67.084C68.097 71.613 70.812 71.663 73.328 72.917V87.475C73.328 87.724 73.532 87.929 73.782 87.929H75.825A0.455 0.455 0 0 0 76.278 87.475V74.682L77.503 73.349C77.692 73.086 77.656 72.795 77.481 72.631A12 12 0 0 0 76.278 71.636V61.577C76.278 61.555 76.268 61.536 76.265 61.515 76.373 60.06 76.852 57.884 78.381 56.539 79.395 55.63 80.435 54.465 81.105 52.7 81.773 50.957 82.121 48.698 82.131 45.409L82.132 45.41zM66.993 54.556H67.197C69.965 54.556 72.347 53.92 74.025 52.256 75.703 50.582 76.412 48.132 76.408 45.092V44.824C76.412 41.792 75.702 39.343 74.026 37.668 72.346 35.997 69.955 35.356 67.176 35.361H66.993C64.214 35.357 61.825 35.998 60.143 37.668 58.467 39.343 57.758 41.792 57.761 44.824V45.092C57.758 48.132 58.467 50.582 60.144 52.256 61.827 53.925 64.216 54.559 66.993 54.556M60.652 44.824C60.656 42.193 61.258 40.632 62.185 39.715 63.107 38.791 64.609 38.253 66.994 38.249H67.177C69.562 38.253 71.065 38.791 71.987 39.715 72.913 40.632 73.515 42.193 73.519 44.824V45.092C73.516 47.733 72.913 49.292 71.989 50.208 71.068 51.129 69.565 51.663 67.178 51.666H66.995C64.609 51.662 63.104 51.128 62.185 50.208 61.26 49.292 60.658 47.733 60.654 45.092V44.824zM46.04 59.513L46.141 59.465C44.974 57.002 44.585 54.834 44.584 52.985 44.584 50.83 45.121 49.097 45.653 47.907 45.92 47.313 46.184 46.856 46.374 46.558 46.41 46.502 46.44 46.457 46.471 46.412 46.489 46.394 46.511 46.383 46.526 46.361L46.786 46.005A0.46 0.46 0 0 0 46.685 45.365L45.085 44.199A0.46 0.46 0 0 0 44.445 44.299L44.415 44.34 44.409 44.335V44.334C44.299 44.476 41.704 47.693 41.693 52.986 41.692 54.448 41.902 56.064 42.411 57.788A17.5 17.5 0 0 0 37.188 56.969L37.144 56.97H36.852L36.808 56.969C33.926 56.969 29.522 57.783 26.314 60.81 26.14 60.974 26.103 61.269 26.292 61.534L27.554 62.906A0.4 0.4 0 0 0 27.739 62.984V73.134C27.739 73.386 27.944 73.592 28.197 73.592H40.654V87.472C40.654 87.724 40.859 87.93 41.112 87.93H43.173A0.46 0.46 0 0 0 43.632 87.472V73.592H45.905A0.46 0.46 0 0 0 46.364 73.134V62.941C46.39 62.929 46.418 62.925 46.442 62.906L47.704 61.534C47.894 61.269 47.858 60.974 47.683 60.81A12.4 12.4 0 0 0 46.04 59.513M43.387 70.614H30.718V61.047C33.188 59.903 35.818 59.782 36.809 59.782H37.189C38.197 59.782 40.877 59.829 43.387 61.046zM29.207 46.478C29.379 46.3 29.764 46.102 30.665 46.099H30.742V43.21L30.665 43.209C29.37 43.206 28.099 43.508 27.167 44.433 26.24 45.362 25.907 46.659 25.911 48.063V48.178C25.907 49.584 26.239 50.882 27.168 51.811A4 4 0 0 0 28.835 52.782C28.812 54.258 28.567 55.917 27.952 57.744A20 20 0 0 1 31.361 56.166L31.369 56.119 31.37 56.12C31.899 53.589 31.844 50.6 31.844 50.6A0.46 0.46 0 0 0 31.386 50.142H30.743V50.14H30.666C29.763 50.136 29.378 49.939 29.207 49.762 29.029 49.591 28.805 49.185 28.8 48.177V48.062C28.804 47.059 29.029 46.651 29.207 46.478M67.13 49.002C69.993 49.002 71.055 47.907 71.382 43.909H62.935C63.297 47.907 64.423 49.002 67.13 49.002" fill="#283132" data-fill-palette-color="accent"></path></g></g></svg></g></svg></g><g><rect width="78.63009402820269" height="2.50486164537054" y="67.66631029822403" x="242.33438597179725" fill="#8eaec4" data-fill-palette-color="secondary"></rect><rect width="78.63009402820269" height="2.50486164537054" y="67.66631029822403" x="76.53311999999998" fill="#8eaec4" data-fill-palette-color="secondary"></rect></g></svg></g><defs></defs></svg><rect width="395.5199999999999" height="137.60116388432007" fill="none" stroke="none" visibility="hidden"></rect></g></svg></g></svg>